name Walk6.mot
datacolumns 19
datarows 17
range 2.55500000 2.57100000
endheader

                time	   L_ground_force_vx	   L_ground_force_vy	   L_ground_force_vz	   L_ground_force_px	   L_ground_force_py	   L_ground_force_pz	   R_ground_force_vx	   R_ground_force_vy	   R_ground_force_vz	   R_ground_force_px	   R_ground_force_py	   R_ground_force_pz	   L_ground_torque_x	   L_ground_torque_y	   L_ground_torque_z	   R_ground_torque_x	   R_ground_torque_y	   R_ground_torque_z	
          2.55500000	         45.88277751	        958.21299621	         70.85120120	         -0.16594821	          0.00000000	         -0.08823234	          0.00000000	          0.00000000	          0.00000000	          0.00000000	          0.00000000	          0.00000000	          0.00000000	         -1.11509529	          0.00000000	          0.00000000	          0.00000000	          0.00000000	
          2.55600000	         46.18431638	        958.76615877	         70.88767584	         -0.16545095	          0.00000000	         -0.08832822	          0.00000000	          0.00000000	          0.00000000	          0.00000000	          0.00000000	          0.00000000	          0.00000000	         -1.12382836	          0.00000000	          0.00000000	          0.00000000	          0.00000000	
          2.55700000	         46.49633918	        959.26290263	         70.91211624	         -0.16493016	          0.00000000	         -0.08840792	          0.00000000	          0.00000000	          0.00000000	          0.00000000	          0.00000000	          0.00000000	          0.00000000	         -1.12625160	          0.00000000	          0.00000000	          0.00000000	          0.00000000	
          2.55800000	         46.81380782	        959.66705122	         70.91741030	         -0.16438539	          0.00000000	         -0.08846922	          0.00000000	          0.00000000	          0.00000000	          0.00000000	          0.00000000	          0.00000000	          0.00000000	         -1.11847771	          0.00000000	          0.00000000	          0.00000000	          0.00000000	
          2.55900000	         47.13534349	        959.97226311	         70.90791578	         -0.16383091	          0.00000000	         -0.08852835	          0.00000000	          0.00000000	          0.00000000	          0.00000000	          0.00000000	          0.00000000	          0.00000000	         -1.10161125	          0.00000000	          0.00000000	          0.00000000	          0.00000000	
          2.56000000	         47.46176059	        960.21148990	         70.90262758	         -0.16327612	          0.00000000	         -0.08860176	          0.00000000	          0.00000000	          0.00000000	          0.00000000	          0.00000000	          0.00000000	          0.00000000	         -1.07909487	          0.00000000	          0.00000000	          0.00000000	          0.00000000	
          2.56100000	         47.79323667	        960.44120338	         70.92082447	         -0.16271968	          0.00000000	         -0.08869249	          0.00000000	          0.00000000	          0.00000000	          0.00000000	          0.00000000	          0.00000000	          0.00000000	         -1.05463849	          0.00000000	          0.00000000	          0.00000000	          0.00000000	
          2.56200000	         48.12930430	        960.69945477	         70.96650060	         -0.16215827	          0.00000000	         -0.08879690	          0.00000000	          0.00000000	          0.00000000	          0.00000000	          0.00000000	          0.00000000	          0.00000000	         -1.03126268	          0.00000000	          0.00000000	          0.00000000	          0.00000000	
          2.56300000	         48.47163439	        960.99425093	         71.03063475	         -0.16159153	          0.00000000	         -0.08890435	          0.00000000	          0.00000000	          0.00000000	          0.00000000	          0.00000000	          0.00000000	          0.00000000	         -1.01249620	          0.00000000	          0.00000000	          0.00000000	          0.00000000	
          2.56400000	         48.82083425	        961.32179025	         71.10276815	         -0.16102480	          0.00000000	         -0.08899611	          0.00000000	          0.00000000	          0.00000000	          0.00000000	          0.00000000	          0.00000000	          0.00000000	         -1.00138003	          0.00000000	          0.00000000	          0.00000000	          0.00000000	
          2.56500000	         49.16815483	        961.67755147	         71.17541689	         -0.16046811	          0.00000000	         -0.08906515	          0.00000000	          0.00000000	          0.00000000	          0.00000000	          0.00000000	          0.00000000	          0.00000000	         -0.99705223	          0.00000000	          0.00000000	          0.00000000	          0.00000000	
          2.56600000	         49.49723874	        962.06341516	         71.24322313	         -0.15992854	          0.00000000	         -0.08912548	          0.00000000	          0.00000000	          0.00000000	          0.00000000	          0.00000000	          0.00000000	          0.00000000	         -0.99614628	          0.00000000	          0.00000000	          0.00000000	          0.00000000	
          2.56700000	         49.80047111	        962.48140141	         71.30182794	         -0.15940331	          0.00000000	         -0.08919623	          0.00000000	          0.00000000	          0.00000000	          0.00000000	          0.00000000	          0.00000000	          0.00000000	         -0.99699566	          0.00000000	          0.00000000	          0.00000000	          0.00000000	
          2.56800000	         50.08916198	        962.92121494	         71.34885543	         -0.15888357	          0.00000000	         -0.08928587	          0.00000000	          0.00000000	          0.00000000	          0.00000000	          0.00000000	          0.00000000	          0.00000000	         -1.00033753	          0.00000000	          0.00000000	          0.00000000	          0.00000000	
          2.56900000	         50.38395166	        963.37196813	         71.38769032	         -0.15836535	          0.00000000	         -0.08938440	          0.00000000	          0.00000000	          0.00000000	          0.00000000	          0.00000000	          0.00000000	          0.00000000	         -1.00669164	          0.00000000	          0.00000000	          0.00000000	          0.00000000	
          2.57000000	         50.69834403	        963.81354838	         71.42426763	         -0.15784872	          0.00000000	         -0.08947464	          0.00000000	          0.00000000	          0.00000000	          0.00000000	          0.00000000	          0.00000000	          0.00000000	         -1.01421245	          0.00000000	          0.00000000	          0.00000000	          0.00000000	
          2.57100000	         51.03176732	        964.19031315	         71.45925184	         -0.15732558	          0.00000000	         -0.08955854	          0.00000000	          0.00000000	          0.00000000	          0.00000000	          0.00000000	          0.00000000	          0.00000000	         -1.01990810	          0.00000000	          0.00000000	          0.00000000	          0.00000000	
